name C:\Users\u0101727\Documents\MyRepositories\upper-imu-dc\OpenSim\subject0\MA\ResultsMA\grid_4nodes_9dim\angles_3.mot
datacolumns 10
datarows 18
range 350.01000000 350.18000000
endheader 
time	clav_prot	clav_elev	scapula_abduction	scapula_elevation	scapula_upward_rot	scapula_winging	plane_elv	shoulder_elv	axial_rot	
        350.01000000	        -50.00000000	         10.00000000	         15.00000000	          3.33333333	          0.00000000	          0.00000000	        -90.00000000	         63.33333333	        -90.00000000	
        350.02000000	        -38.33333333	         10.00000000	         15.00000000	          3.33333333	          0.00000000	          0.00000000	        -90.00000000	         63.33333333	        -90.00000000	
        350.03000000	        -26.66666667	         10.00000000	         15.00000000	          3.33333333	          0.00000000	          0.00000000	        -90.00000000	         63.33333333	        -90.00000000	
        350.04000000	        -15.00000000	         10.00000000	         15.00000000	          3.33333333	          0.00000000	          0.00000000	        -90.00000000	         63.33333333	        -90.00000000	
        350.05000000	        -50.00000000	         20.00000000	         15.00000000	          3.33333333	          0.00000000	          0.00000000	        -90.00000000	         63.33333333	        -90.00000000	
        350.06000000	        -38.33333333	         20.00000000	         15.00000000	          3.33333333	          0.00000000	          0.00000000	        -90.00000000	         63.33333333	        -90.00000000	
        350.07000000	        -26.66666667	         20.00000000	         15.00000000	          3.33333333	          0.00000000	          0.00000000	        -90.00000000	         63.33333333	        -90.00000000	
        350.08000000	        -15.00000000	         20.00000000	         15.00000000	          3.33333333	          0.00000000	          0.00000000	        -90.00000000	         63.33333333	        -90.00000000	
        350.09000000	        -50.00000000	        -10.00000000	        -40.00000000	         10.00000000	          0.00000000	          0.00000000	        -90.00000000	         63.33333333	        -90.00000000	
        350.10000000	        -38.33333333	        -10.00000000	        -40.00000000	         10.00000000	          0.00000000	          0.00000000	        -90.00000000	         63.33333333	        -90.00000000	
        350.11000000	        -26.66666667	        -10.00000000	        -40.00000000	         10.00000000	          0.00000000	          0.00000000	        -90.00000000	         63.33333333	        -90.00000000	
        350.12000000	        -15.00000000	        -10.00000000	        -40.00000000	         10.00000000	          0.00000000	          0.00000000	        -90.00000000	         63.33333333	        -90.00000000	
        350.13000000	        -50.00000000	          0.00000000	        -40.00000000	         10.00000000	          0.00000000	          0.00000000	        -90.00000000	         63.33333333	        -90.00000000	
        350.14000000	        -38.33333333	          0.00000000	        -40.00000000	         10.00000000	          0.00000000	          0.00000000	        -90.00000000	         63.33333333	        -90.00000000	
        350.15000000	        -26.66666667	          0.00000000	        -40.00000000	         10.00000000	          0.00000000	          0.00000000	        -90.00000000	         63.33333333	        -90.00000000	
        350.16000000	        -15.00000000	          0.00000000	        -40.00000000	         10.00000000	          0.00000000	          0.00000000	        -90.00000000	         63.33333333	        -90.00000000	
        350.17000000	        -50.00000000	         10.00000000	        -40.00000000	         10.00000000	          0.00000000	          0.00000000	        -90.00000000	         63.33333333	        -90.00000000	
        350.18000000	        -38.33333333	         10.00000000	        -40.00000000	         10.00000000	          0.00000000	          0.00000000	        -90.00000000	         63.33333333	        -90.00000000	
